<svg height="512" viewBox="0 0 64 64" width="512" xmlns="http://www.w3.org/2000/svg"><g id="global-world-worldwide-shields-protect-security"><path d="m61 48v3.51a5.993 5.993 0 0 1 -1.76 4.25l-5.24 5.24-5.24-5.24a5.993 5.993 0 0 1 -1.76-4.25v-3.51l7-3z" fill="#bddbff"/><path d="m61 6v3.51a5.993 5.993 0 0 1 -1.76 4.25l-5.24 5.24-5.24-5.24a5.993 5.993 0 0 1 -1.76-4.25v-3.51l7-3z" fill="#bddbff"/><path d="m36 32h6a9.947 9.947 0 0 1 -2.86 7 9.968 9.968 0 0 0 -3.6-2.34 23.07 23.07 0 0 0 .46-4.66z" fill="#bddbff"/><path d="m32 22a9.994 9.994 0 0 1 7.14 3 9.968 9.968 0 0 1 -3.6 2.34c-.67-3.17-2-5.34-3.54-5.34z" fill="#bddbff"/><path d="m36 32h-8a23.07 23.07 0 0 1 .46-4.66 9.824 9.824 0 0 0 7.08 0 23.07 23.07 0 0 1 .46 4.66z" fill="#bddbff"/><path d="m35.54 36.66c-.67 3.17-2 5.34-3.54 5.34s-2.87-2.17-3.54-5.34a9.824 9.824 0 0 1 7.08 0z" fill="#bddbff"/><path d="m32 22c-1.54 0-2.87 2.17-3.54 5.34a9.968 9.968 0 0 1 -3.6-2.34 9.994 9.994 0 0 1 7.14-3z" fill="#bddbff"/><path d="m28.46 36.66a9.968 9.968 0 0 0 -3.6 2.34 9.947 9.947 0 0 1 -2.86-7h6a23.07 23.07 0 0 0 .46 4.66z" fill="#bddbff"/><path d="m17 48v3.51a5.993 5.993 0 0 1 -1.76 4.25l-5.24 5.24-5.24-5.24a5.993 5.993 0 0 1 -1.76-4.25v-3.51l7-3z" fill="#bddbff"/><path d="m17 6v3.51a5.993 5.993 0 0 1 -1.76 4.25l-5.24 5.24-5.24-5.24a5.993 5.993 0 0 1 -1.76-4.25v-3.51l7-3z" fill="#bddbff"/><g fill="#57a4ff"><path d="m17.39 5.08-7-3a.963.963 0 0 0 -.78 0l-7 3a1 1 0 0 0 -.61.92v3.51a6.959 6.959 0 0 0 2.05 4.95l5.24 5.25a1.014 1.014 0 0 0 1.42 0l5.24-5.25a6.959 6.959 0 0 0 2.05-4.95v-3.51a1 1 0 0 0 -.61-.92zm-1.39 4.43a4.976 4.976 0 0 1 -1.46 3.54l-4.54 4.54-4.54-4.54a4.976 4.976 0 0 1 -1.46-3.54v-2.85l6-2.57 6 2.57z"/><path d="m10 13a1 1 0 0 0 .707-.293l4-4-1.414-1.414-3.293 3.293-1.293-1.293-1.414 1.414 2 2a1 1 0 0 0 .707.293z"/><path d="m61.394 5.081-7-3a1.007 1.007 0 0 0 -.788 0l-7 3a1 1 0 0 0 -.606.919v3.515a6.958 6.958 0 0 0 2.05 4.95l5.243 5.242a1 1 0 0 0 1.414 0l5.243-5.242a6.958 6.958 0 0 0 2.05-4.95v-3.515a1 1 0 0 0 -.606-.919zm-1.394 4.434a4.973 4.973 0 0 1 -1.464 3.536l-4.536 4.535-4.535-4.535a4.97 4.97 0 0 1 -1.465-3.536v-2.856l6-2.571 6 2.571z"/><path d="m52.707 9.293-1.414 1.414 2 2a1 1 0 0 0 1.414 0l4-4-1.414-1.414-3.293 3.293z"/><path d="m61.394 47.081-7-3a1.007 1.007 0 0 0 -.788 0l-7 3a1 1 0 0 0 -.606.919v3.515a6.958 6.958 0 0 0 2.05 4.95l5.243 5.242a1 1 0 0 0 1.414 0l5.243-5.242a6.958 6.958 0 0 0 2.05-4.95v-3.515a1 1 0 0 0 -.606-.919zm-1.394 4.434a4.973 4.973 0 0 1 -1.464 3.536l-4.536 4.535-4.535-4.535a4.97 4.97 0 0 1 -1.465-3.536v-2.856l6-2.571 6 2.571z"/><path d="m52.707 51.293-1.414 1.414 2 2a1 1 0 0 0 1.414 0l4-4-1.414-1.414-3.293 3.293z"/><path d="m17.394 47.081-7-3a1.007 1.007 0 0 0 -.788 0l-7 3a1 1 0 0 0 -.606.919v3.515a6.958 6.958 0 0 0 2.05 4.95l5.243 5.242a1 1 0 0 0 1.414 0l5.243-5.242a6.958 6.958 0 0 0 2.05-4.95v-3.515a1 1 0 0 0 -.606-.919zm-1.394 4.434a4.973 4.973 0 0 1 -1.464 3.536l-4.536 4.535-4.535-4.535a4.97 4.97 0 0 1 -1.465-3.536v-2.856l6-2.571 6 2.571z"/><path d="m8.707 51.293-1.414 1.414 2 2a1 1 0 0 0 1.414 0l4-4-1.414-1.414-3.293 3.293z"/><path d="m32 13a19 19 0 1 0 19 19 19.017 19.017 0 0 0 -19-19zm0 36a17 17 0 1 1 17-17 17.024 17.024 0 0 1 -17 17z"/><path d="m32 21a11 11 0 1 0 11 11 11.007 11.007 0 0 0 -11-11zm8.94 10h-3.96a23.513 23.513 0 0 0 -.32-3.05 11.038 11.038 0 0 0 2.4-1.52 8.95 8.95 0 0 1 1.88 4.57zm-3.29-6a8.734 8.734 0 0 1 -1.44.95 12.77 12.77 0 0 0 -.89-2.31 9.184 9.184 0 0 1 2.33 1.36zm-5.65-2c.76 0 1.73 1.35 2.36 3.68a8.862 8.862 0 0 1 -4.72 0c.63-2.33 1.6-3.68 2.36-3.68zm-7.06 3.43a11.038 11.038 0 0 0 2.4 1.52 23.513 23.513 0 0 0 -.32 3.05h-3.96a8.95 8.95 0 0 1 1.88-4.57zm-1.88 6.57h3.96a23.513 23.513 0 0 0 .32 3.05 11.038 11.038 0 0 0 -2.4 1.52 8.95 8.95 0 0 1 -1.88-4.57zm3.29 6a8.734 8.734 0 0 1 1.44-.95 12.77 12.77 0 0 0 .89 2.31 9.184 9.184 0 0 1 -2.33-1.36zm1.44-13.05a8.734 8.734 0 0 1 -1.44-.95 9.184 9.184 0 0 1 2.33-1.36 12.77 12.77 0 0 0 -.89 2.31zm4.21 15.05c-.76 0-1.73-1.35-2.36-3.68a8.862 8.862 0 0 1 4.72 0c-.63 2.33-1.6 3.68-2.36 3.68zm2.76-5.64a10.76 10.76 0 0 0 -5.52 0 20.617 20.617 0 0 1 -.22-2.36h5.96a20.617 20.617 0 0 1 -.22 2.36zm-5.74-4.36a20.617 20.617 0 0 1 .22-2.36 10.76 10.76 0 0 0 5.52 0 20.617 20.617 0 0 1 .22 2.36zm6.3 9.36a12.77 12.77 0 0 0 .89-2.31 8.734 8.734 0 0 1 1.44.95 9.184 9.184 0 0 1 -2.33 1.36zm3.74-2.79a11.038 11.038 0 0 0 -2.4-1.52 23.513 23.513 0 0 0 .32-3.05h3.96a8.95 8.95 0 0 1 -1.88 4.57z"/><path d="m31 17h2v2h-2z"/><path d="m24 18.876h1.999v1.999h-1.999z" transform="matrix(.866 -.5 .5 .866 -6.589 15.168)"/><path d="m18.876 24h2v2h-2z" transform="matrix(.5 -.866 .866 .5 -11.713 29.712)"/><path d="m17 31h2v2h-2z"/><path d="m18.876 38h2v2h-2z" transform="matrix(.866 -.5 .5 .866 -16.835 15.159)"/><path d="m24 43.125h1.999v1.999h-1.999z" transform="matrix(.5 -.866 .866 .5 -25.713 43.705)"/><path d="m31 45h2v2h-2z"/><path d="m38 43.125h1.999v1.999h-1.999z" transform="matrix(.866 -.5 .5 .866 -16.84 25.42)"/><path d="m43.124 38h2v2h-2z" transform="matrix(.5 -.866 .866 .5 -11.713 57.711)"/><path d="m45 31h2v2h-2z"/><path d="m43.124 24h2v2h-2z" transform="matrix(.866 -.5 .5 .866 -6.589 25.407)"/><path d="m38 18.876h1.999v1.999h-1.999z" transform="matrix(.5 -.866 .866 .5 2.284 43.707)"/><path d="m7.07 21.615a27.086 27.086 0 0 0 .007 20.785l1.845-.771a25.087 25.087 0 0 1 -.006-19.246z"/><path d="m22.385 55.085-.77 1.846a27.092 27.092 0 0 0 20.785-.008l-.771-1.846a25.193 25.193 0 0 1 -19.244.008z"/><path d="m56.923 42.4a27.088 27.088 0 0 0 .007-20.788l-1.846.77a25.084 25.084 0 0 1 -.007 19.247z"/><path d="m41.615 8.916.77-1.846a27.086 27.086 0 0 0 -20.785.007l.771 1.846a25.18 25.18 0 0 1 19.244-.007z"/></g></g></svg>